<svg enable-background="new 0 0 100 100" version="1.1" viewBox="0 0 100 100" x="0px" xml:space="preserve" xmlns="http://www.w3.org/2000/svg" xmlns:xlink="http://www.w3.org/1999/xlink" y="0px">
    <path fill="#fff" d="M23.255,34.899c-0.629,2.101-0.235,4.188,1.139,6.033c0.014,0.018,1.111,1.414,1.994,1.918l-0.011,0.015  c3.612,2.369,7.629,3.105,11.541,3.215c-3.569,1.47-7.072,3.531-9.348,6.995c-0.751,1.145-1.944,3.44-1.489,5.965  c0.354,1.955,1.675,3.729,3.445,4.628c1.316,0.669,2.875,0.85,4.316,0.547c0.205,1.897,1.25,4.415,4.315,5.471  c2.689,0.928,4.863-0.027,6.215-0.991c0.017-0.012,1.339-0.98,1.854-1.817l0.017,0.012c2.354-3.29,4.041-7.247,4.874-11.271  c1.986,7.048,6.449,18.667,15.709,27.298c0.192,0.18,0.438,0.269,0.682,0.269c0.268,0,0.534-0.106,0.731-0.318  c0.377-0.403,0.354-1.036-0.05-1.413c-9.014-8.402-13.359-20.062-15.245-26.841c2.791,3.718,5.854,6.236,9.392,7.768  c1.035,0.518,5.499,1.74,8.422-1.743c2.071-2.468,1.688-5.147,0.872-6.908c1.4-0.483,2.644-1.443,3.429-2.694  c1.055-1.684,1.273-3.885,0.569-5.743c-0.908-2.396-3.113-3.751-4.348-4.346c-3.731-1.795-7.799-1.758-11.615-1.182  c3.297-2.108,6.364-4.813,8.245-8.712c0.866-1.855,1.54-5.717-1.433-8.424c-2.381-2.168-5.072-1.895-6.866-1.151  c-0.426-1.418-1.335-2.7-2.554-3.534c-1.64-1.123-3.83-1.431-5.714-0.803c-2.433,0.811-3.876,2.959-4.52,4.168  c-1.658,3.113-1.997,6.521-1.801,9.834c-1.536-2.938-3.581-5.681-6.603-7.494c-1.174-0.705-3.521-1.804-6.019-1.244  c-1.939,0.433-3.658,1.823-4.485,3.629c-0.614,1.341-0.734,2.903-0.372,4.336C26.658,30.648,24.184,31.794,23.255,34.899z   M25.171,35.473c1.014-3.386,4.455-3.179,4.524-3.18l0.132,0.021c0.375,0.058,0.751-0.101,0.97-0.41  c0.219-0.31,0.244-0.717,0.064-1.051c-0.649-1.211-0.697-2.739-0.125-3.989c0.572-1.249,1.761-2.211,3.103-2.511  c1.329-0.297,2.991,0.069,4.554,1.008c4.785,2.872,6.842,8.453,8.656,13.377c0.094,0.254,0.331,0.441,0.579,0.551  c0.247,0.11,0.572,0.094,0.825-0.006c0.441-0.18,0.694-0.646,0.605-1.113c-0.98-5.155-2.091-10.998,0.532-15.924  c0.856-1.608,2.091-2.778,3.386-3.21c1.304-0.434,2.818-0.222,3.952,0.556c1.134,0.776,1.88,2.111,1.946,3.484  c0.019,0.38,0.251,0.717,0.601,0.868c0.35,0.152,0.754,0.092,1.044-0.153l0.038-0.036c0.119-0.085,2.935-2.052,5.574,0.351  c2.635,2.399,1.051,5.918,0.968,6.097c-2.553,5.286-7.514,8.13-12.377,10.589c-0.462,0.234-0.67,0.782-0.478,1.264l0.081,0.203  c0.183,0.457,0.667,0.714,1.155,0.603c5.111-1.188,10.905-2.534,15.933-0.113c1.643,0.79,2.861,1.976,3.344,3.252  c0.487,1.285,0.337,2.808-0.394,3.972c-0.729,1.164-2.033,1.964-3.402,2.086c-0.379,0.034-0.705,0.279-0.843,0.633  c-0.138,0.354-0.063,0.756,0.192,1.037l0.037,0.035c0.089,0.116,2.149,2.882-0.121,5.589c-2.315,2.757-5.896,1.279-6.046,1.216  c-4.525-1.96-8.212-5.7-11.602-11.768c-0.027-0.052-0.06-0.1-0.095-0.146c-0.065-0.084-0.143-0.156-0.229-0.214  c-0.138-0.093-0.299-0.152-0.472-0.168c-0.077-0.007-0.156-0.006-0.233,0.007c-0.154,0.022-0.297,0.079-0.419,0.163  c-0.087,0.059-0.162,0.131-0.226,0.212c-0.111,0.143-0.185,0.315-0.205,0.504c-0.006,0.05-0.007,0.101-0.005,0.151  c0.176,5.589-1.723,11.726-5.08,16.416v0.001c-0.11,0.15-2.408,3.24-5.809,2.069c-3.34-1.15-2.997-4.581-2.994-4.646l0.026-0.132  c0.074-0.373-0.068-0.755-0.369-0.987c-0.179-0.138-0.394-0.209-0.611-0.209c-0.148,0-0.298,0.033-0.437,0.101  c-1.235,0.6-2.766,0.587-3.991-0.036c-1.225-0.622-2.138-1.849-2.383-3.201c-0.242-1.344,0.192-2.987,1.192-4.511  c3.064-4.665,8.724-6.493,13.717-8.106c0.47-0.151,0.759-0.624,0.68-1.112l-0.035-0.216c-0.084-0.511-0.546-0.884-1.06-0.836  c-5.44,0.395-11.16,0.511-16.069-2.709c-0.001-0.001-0.001-0.001-0.002-0.001C27.309,41.082,24.141,38.907,25.171,35.473z"/>
</svg>