<?xml version="1.0" encoding="UTF-8" standalone="no"?>
<svg viewBox="0 0 100 100" version="1.1" xmlns="http://www.w3.org/2000/svg" 
xmlns:xlink="http://www.w3.org/1999/xlink">
    <title>Tail</title>
    <g stroke="#384A7C" stroke-width="2" fill="none" fill-rule="evenodd">
        <g>
            <path
                d="M50,100 C22.43,100 0,77.57 0,50 C0,22.43 22.43,0 50,0 C77.57,0 100,22.43 100,50 C100,77.57 77.57,100 50,100 Z M50,2.367 C23.734,2.367 2.367,23.736 2.367,50 C2.367,76.265 23.735,97.633 50,97.633 C76.265,97.633 97.633,76.265 97.633,50 C97.633,23.736 76.265,2.367 50,2.367 Z M50,2.367 C23.734,2.367 2.367,23.736 2.367,50 C2.367,76.265 23.735,97.633 50,97.633 C76.265,97.633 97.633,76.265 97.633,50 C97.633,23.736 76.265,2.367 50,2.367 Z"
                 fill="#FFFFFF"></path>


             <path d="M16.658,22.571 C16.384,22.571 16.11,22.476 15.887,22.284 C15.391,21.859 15.335,21.112 15.76,20.615 C19.485,16.279 23.929,12.732 28.971,10.073 C29.551,9.77 30.264,9.99 30.57,10.568 C30.875,11.146 30.653,11.862 30.075,12.167 C25.298,14.687 21.085,18.05 17.555,22.159 C17.322,22.43 16.991,22.571 16.658,22.571 Z"  fill="#384A7C"></path> 
             <!-- <path d="M30.29,17.317 C29.909,17.317 29.533,17.132 29.306,16.793 C28.942,16.25 29.089,15.515 29.632,15.149 C30.907,14.296 32.249,13.498 33.62,12.773 C34.2,12.47 34.913,12.69 35.22,13.268 C35.525,13.846 35.303,14.562 34.725,14.867 C33.426,15.552 32.155,16.309 30.947,17.118 C30.745,17.252 30.516,17.317 30.29,17.317 Z"  fill="#384A7C"></path>  -->
             <!-- <path d="M25.308,21.177 C24.983,21.177 24.661,21.046 24.427,20.784 C23.99,20.296 24.031,19.547 24.517,19.113 C25.113,18.579 25.725,18.059 26.353,17.555 C26.861,17.143 27.607,17.224 28.016,17.735 C28.426,18.246 28.344,18.99 27.834,19.399 C27.241,19.875 26.661,20.368 26.097,20.874 C25.872,21.078 25.589,21.177 25.308,21.177 Z"  fill="#384A7C"></path>  -->
             <!-- <path d="M21.307,25.271 C21.033,25.271 20.759,25.176 20.536,24.987 C20.04,24.559 19.983,23.813 20.409,23.318 C21.686,21.827 23.07,20.415 24.518,19.113 C25.004,18.674 25.75,18.713 26.189,19.203 C26.626,19.688 26.585,20.437 26.099,20.874 C24.726,22.106 23.416,23.447 22.205,24.857 C21.971,25.129 21.639,25.271 21.307,25.271 Z"  fill="#384A7C"></path>  -->
             <path d="M50,95.118 C25.122,95.118 4.882,74.878 4.882,50 C4.882,39.218 8.745,28.784 15.76,20.615 C16.189,20.123 16.938,20.067 17.429,20.49 C17.925,20.916 17.981,21.662 17.556,22.159 C10.909,29.896 7.249,39.783 7.249,50 C7.249,73.574 26.428,92.752 50,92.752 C51.747,92.752 53.509,92.646 55.233,92.435 C55.871,92.347 56.471,92.814 56.55,93.466 C56.628,94.115 56.168,94.705 55.519,94.783 C53.7,95.005 51.842,95.118 50,95.118 Z"  fill="#384A7C"></path> 
             <path d="M55.374,94.792 C54.784,94.792 54.273,94.354 54.202,93.752 C54.123,93.103 54.583,92.514 55.233,92.435 C61.563,91.664 67.506,89.537 72.896,86.114 C73.442,85.764 74.179,85.925 74.528,86.479 C74.88,87.029 74.716,87.761 74.163,88.111 C68.475,91.723 62.202,93.97 55.519,94.784 C55.471,94.79 55.423,94.792 55.374,94.792 Z"  fill="#384A7C"></path> 
             <!-- <path d="M51.791,91.545 C51.202,91.545 50.691,91.106 50.619,90.505 C50.541,89.856 51.001,89.266 51.65,89.188 C56,88.656 60.602,88 64.832,86.327 C65.429,86.079 66.127,86.385 66.367,86.992 C66.607,87.6 66.309,88.287 65.701,88.527 C61.213,90.304 56.439,90.989 51.936,91.537 C51.889,91.543 51.84,91.545 51.791,91.545 Z"  fill="#384A7C"></path>  -->
             <!-- <path d="M68.182,87.267 C67.759,87.267 67.35,87.04 67.137,86.641 C66.829,86.063 67.049,85.346 67.624,85.038 C68.775,84.424 69.878,83.714 70.902,82.926 C71.417,82.53 72.159,82.623 72.561,83.143 C72.958,83.662 72.862,84.403 72.343,84.803 C71.218,85.669 70.004,86.45 68.738,87.128 C68.561,87.223 68.371,87.267 68.182,87.267 Z"  fill="#384A7C"></path>  -->
             <path d="M73.53,88.295 C73.139,88.295 72.756,88.101 72.531,87.747 C72.179,87.195 72.343,86.465 72.894,86.113 C85.33,78.211 92.752,64.712 92.752,50 C92.752,26.426 73.574,7.249 50,7.249 C43.061,7.249 36.172,8.95 30.076,12.167 C29.498,12.47 28.782,12.25 28.477,11.672 C28.172,11.094 28.394,10.378 28.972,10.073 C35.406,6.676 42.678,4.882 50,4.882 C74.878,4.882 95.118,25.123 95.118,50 C95.118,65.525 87.285,79.773 74.166,88.11 C73.967,88.235 73.747,88.295 73.53,88.295 Z"  fill="#384A7C"></path> 



            <path
                d="M38.954,32.114 C38.515,32.114 38.094,31.869 37.888,31.446 C36.588,28.763 36.367,25.605 37.266,22.552 C39.129,16.228 45.298,12.292 51.051,13.792 C54.999,14.821 57.861,18.158 58.519,22.501 C58.619,23.148 58.172,23.751 57.528,23.849 C56.899,23.955 56.277,23.504 56.18,22.857 C55.664,19.464 53.471,16.868 50.454,16.08 C45.929,14.906 41.042,18.111 39.535,23.222 C38.803,25.707 38.973,28.261 40.018,30.415 C40.302,31.002 40.057,31.709 39.468,31.996 C39.303,32.078 39.127,32.114 38.954,32.114 Z"
                 fill="#384A7C"></path>
            <path
                d="M43.655,46.022 C43.16,46.022 42.7,45.711 42.534,45.217 L37.78,31.171 C37.57,30.551 37.903,29.881 38.522,29.671 C39.144,29.463 39.814,29.794 40.022,30.413 L44.777,44.46 C44.987,45.079 44.654,45.749 44.035,45.96 C43.91,46.001 43.78,46.022 43.655,46.022 Z"
                 fill="#384A7C"></path>
            <path
                d="M68.598,39.832 C68.209,39.832 67.83,39.641 67.604,39.291 C67.249,38.741 67.408,38.009 67.956,37.655 C70.05,36.302 71.61,34.183 72.348,31.684 C73.131,29.028 72.866,26.241 71.618,24.033 C70.573,22.186 68.918,20.889 66.954,20.377 C63.9,19.591 60.574,20.765 58.247,23.453 C57.819,23.948 57.07,24.001 56.578,23.573 C56.083,23.146 56.03,22.399 56.458,21.905 C59.379,18.53 63.635,17.07 67.55,18.089 C70.139,18.762 72.317,20.461 73.678,22.869 C75.24,25.631 75.582,29.086 74.618,32.355 C73.719,35.397 71.809,37.983 69.242,39.643 C69.041,39.772 68.819,39.832 68.598,39.832 Z"
                 fill="#384A7C"></path>
            <path
                d="M56.211,50.078 C55.871,50.078 55.533,49.932 55.298,49.648 C54.882,49.144 54.953,48.398 55.457,47.982 L67.967,37.643 C68.466,37.224 69.212,37.293 69.633,37.802 C70.049,38.306 69.978,39.053 69.474,39.469 L56.964,49.808 C56.745,49.991 56.477,50.078 56.211,50.078 Z"
                 fill="#384A7C"></path>
            <path
                d="M23.17,71.812 C23.055,71.812 22.938,71.81 22.822,71.807 C20.069,71.708 17.559,70.499 15.751,68.405 C13.737,66.068 12.795,62.826 13.167,59.505 C13.65,55.124 16.308,51.221 20.103,49.318 C20.686,49.024 21.398,49.26 21.692,49.847 C21.984,50.429 21.748,51.141 21.164,51.435 C18.08,52.979 15.917,56.171 15.521,59.765 C15.222,62.437 15.959,65.021 17.544,66.859 C18.916,68.449 20.819,69.367 22.904,69.441 C25.184,69.545 27.444,68.611 29.267,66.889 C29.742,66.438 30.491,66.461 30.939,66.935 C31.388,67.412 31.366,68.16 30.892,68.609 C28.698,70.683 25.968,71.812 23.17,71.812 Z"
                 fill="#384A7C"></path>
            <path
                d="M56.311,75.896 C55.858,75.896 55.423,75.633 55.229,75.191 L52.584,69.198 C52.318,68.599 52.591,67.901 53.188,67.638 C53.789,67.371 54.485,67.642 54.749,68.241 L57.393,74.235 C57.659,74.834 57.386,75.531 56.789,75.795 C56.632,75.864 56.47,75.896 56.311,75.896 Z"
                 fill="#384A7C"></path>
            <path
                d="M46.376,83.402 C46.276,83.402 46.177,83.39 46.077,83.362 L33.307,80.036 C32.954,79.946 32.664,79.696 32.52,79.364 C32.374,79.028 32.392,78.647 32.565,78.328 L42.104,60.743 L30.637,68.821 C30.103,69.196 29.363,69.066 28.988,68.535 C28.611,68.001 28.739,67.262 29.274,66.885 L44.871,55.897 C45.321,55.585 45.932,55.617 46.339,55.98 C46.75,56.347 46.855,56.946 46.593,57.429 L35.367,78.127 L45.336,80.726 L47.633,57.596 C47.684,57.062 48.093,56.629 48.622,56.544 C49.149,56.47 49.677,56.745 49.892,57.234 L54.748,68.241 C55.014,68.84 54.74,69.538 54.144,69.802 C53.539,70.066 52.847,69.795 52.583,69.198 L49.541,62.305 L47.551,82.335 C47.519,82.68 47.334,82.992 47.052,83.189 C46.852,83.33 46.616,83.402 46.376,83.402 Z"
                 fill="#384A7C"></path>
            <path
                d="M20.633,51.561 C20.412,51.561 20.189,51.499 19.99,51.372 C16.584,49.162 14.775,45.036 15.271,40.607 C15.996,34.137 21.383,28.981 27.384,29.263 C30.342,29.374 32.973,30.728 34.797,33.079 C35.198,33.597 35.103,34.339 34.588,34.741 C34.069,35.14 33.329,35.046 32.927,34.531 C31.54,32.742 29.541,31.714 27.298,31.63 C22.517,31.392 18.215,35.609 17.625,40.871 C17.229,44.405 18.629,47.666 21.278,49.384 C21.827,49.74 21.983,50.473 21.627,51.023 C21.4,51.371 21.02,51.561 20.633,51.561 Z"
                 fill="#384A7C"></path>
            <path
                d="M64.816,82.655 C63.254,82.655 61.723,82.29 60.327,81.571 C59.747,81.27 59.518,80.556 59.818,79.976 C60.119,79.393 60.838,79.166 61.414,79.467 C63.212,80.392 65.322,80.539 67.356,79.871 C69.796,79.071 71.907,77.183 73.141,74.691 C74.761,71.434 74.662,67.673 72.884,64.873 C72.533,64.322 72.697,63.59 73.249,63.241 C73.797,62.891 74.532,63.052 74.881,63.606 C77.103,67.1 77.248,71.752 75.26,75.745 C73.746,78.801 71.132,81.124 68.093,82.12 C67.01,82.478 65.904,82.655 64.816,82.655 Z"
                 fill="#384A7C"></path>
            <path
                d="M60.87,81.703 C60.685,81.703 60.498,81.661 60.325,81.569 C57.745,80.228 55.896,77.847 55.12,74.863 C54.953,74.23 55.332,73.585 55.966,73.421 C56.604,73.246 57.244,73.637 57.408,74.268 C58.015,76.595 59.437,78.442 61.416,79.471 C61.996,79.771 62.223,80.486 61.92,81.066 C61.71,81.472 61.298,81.703 60.87,81.703 Z"
                 fill="#384A7C"></path>
            <path
                d="M73.884,65.424 C73.262,65.424 72.739,64.939 72.702,64.31 C72.663,63.659 73.16,63.099 73.814,63.06 C77.064,62.866 80.083,60.728 81.693,57.48 C84.062,52.708 82.634,47.09 78.51,44.961 C76.543,43.949 74.253,43.87 72.057,44.734 C71.458,44.979 70.76,44.676 70.522,44.069 C70.282,43.461 70.581,42.774 71.188,42.534 C74.019,41.411 77.01,41.524 79.594,42.857 C84.862,45.578 86.755,52.609 83.815,58.533 C81.828,62.539 78.048,65.179 73.953,65.422 C73.93,65.424 73.906,65.424 73.884,65.424 Z"
                 fill="#384A7C"></path>
            <path
                d="M43.655,46.022 C43.329,46.022 43.003,45.887 42.77,45.625 L32.882,34.477 C32.448,33.987 32.492,33.241 32.983,32.806 C33.467,32.374 34.217,32.415 34.653,32.905 L44.541,44.053 C44.976,44.543 44.93,45.289 44.442,45.724 C44.214,45.923 43.935,46.022 43.655,46.022 Z"
                 fill="#384A7C"></path>
            <path
                d="M56.211,50.078 C55.719,50.078 55.259,49.768 55.09,49.276 C54.879,48.659 55.21,47.986 55.829,47.774 L71.39,42.464 C71.997,42.261 72.68,42.584 72.892,43.203 C73.103,43.82 72.772,44.493 72.153,44.706 L56.592,50.016 C56.467,50.058 56.338,50.078 56.211,50.078 Z"
                 fill="#384A7C"></path>
        </g>
    </g>
</svg>