<?xml version="1.0" encoding="UTF-8" standalone="no"?>
<svg viewBox="0 0 100 100" version="1.1" xmlns="http://www.w3.org/2000/svg"
    xmlns:xlink="http://www.w3.org/1999/xlink">
    <g stroke="#384A7C" stroke-width="2" fill="none" fill-rule="evenodd">
        <g>
            <path
                d="M50,100 C22.43,100 0,77.57 0,50 C0,22.43 22.43,0 50,0 C77.57,0 100,22.43 100,50 C100,77.57 77.57,100 50,100 Z M50,2.367 C23.734,2.367 2.367,23.736 2.367,50 C2.367,76.265 23.735,97.633 50,97.633 C76.265,97.633 97.633,76.265 97.633,50 C97.633,23.736 76.265,2.367 50,2.367 Z M50,2.367 C23.734,2.367 2.367,23.736 2.367,50 C2.367,76.265 23.735,97.633 50,97.633 C76.265,97.633 97.633,76.265 97.633,50 C97.633,23.736 76.265,2.367 50,2.367 Z"
                 fill="#FFFFFF" fill-rule="nonzero"></path>


            <path
                d="M41.16,36.58 L40.44,46.18 C43.5600156,44.0199892 46.9999812,42.94 50.76,42.94 C55.2400224,42.94 58.779987,44.1299881 61.38,46.51 C63.980013,48.8900119 65.28,52.1399794 65.28,56.26 C65.28,60.7400224 63.7300155,64.3699861 60.63,67.15 C57.5299845,69.9300139 53.480025,71.32 48.48,71.32 C44.3599794,71.32 40.8700143,70.3100101 38.01,68.29 C35.1499857,66.2699899 33.72,63.8000146 33.72,60.88 C33.72,59.4399928 34.1799954,58.2300049 35.1,57.25 C36.0200046,56.2699951 37.1399934,55.78 38.46,55.78 C39.5000052,55.78 40.3499967,56.079997 41.01,56.68 C41.6700033,57.280003 42,58.079995 42,59.08 C42,59.7600034 41.7700023,60.3499975 41.31,60.85 C40.8499977,61.3500025 40.3000032,61.6 39.66,61.6 C39.1799976,61.6400002 38.94,61.7799988 38.94,62.02 C38.94,63.3400066 39.9899895,64.5299947 42.09,65.59 C44.1900105,66.6500053 46.539987,67.18 49.14,67.18 C52.340016,67.18 54.9699897,66.1900099 57.03,64.21 C59.0900103,62.2299901 60.12,59.7000154 60.12,56.62 C60.12,53.6599852 59.2500087,51.3300085 57.51,49.63 C55.7699913,47.9299915 53.3800152,47.08 50.34,47.08 C46.6199814,47.08 43.660011,48.1599892 41.46,50.32 C40.5799956,51.1600042 39.9600018,51.7099987 39.6,51.97 C39.2399982,52.2300013 38.7800028,52.3999996 38.22,52.48 L37.98,52.48 C36.4199922,52.48 35.64,51.6000088 35.64,49.84 C35.64,49.7599996 35.6599998,49.6800004 35.7,49.6 L36.54,38.02 C36.5800002,37.3799968 36.6199998,36.2800078 36.66,34.72 C36.7000002,32.519989 36.8599986,31.1700025 37.14,30.67 C37.4200014,30.1699975 38.159994,29.92 39.36,29.92 C39.8400024,29.92 40.1999988,29.9399998 40.44,29.98 L43.38,29.92 L54.24,29.92 C55.4000058,29.92 56.279997,29.9000002 56.88,29.86 C58.080006,29.7799996 58.8999978,29.74 59.34,29.74 C60.940008,29.74 61.74,30.9199882 61.74,33.28 L61.68,33.7 C61.68,34.7400052 61.8399984,35.959993 62.16,37.36 C62.3200008,37.8400024 62.4,38.279998 62.4,38.68 C62.4,39.9600064 61.7200068,40.6 60.36,40.6 C59.0799936,40.6 58.4000004,39.6600094 58.32,37.78 C58.2399996,35.5399888 57.2600094,34.42 55.38,34.42 L42.84,34.42 C41.839995,34.42 41.2800006,35.1399928 41.16,36.58 Z"
                 fill="#384A7C"></path>
        </g>
    </g>
</svg>