<?xml version="1.0" encoding="UTF-8" standalone="no"?>
<svg width="128px" height="128px" viewBox="0 0 128 128" version="1.1" xmlns="http://www.w3.org/2000/svg"
    xmlns:xlink="http://www.w3.org/1999/xlink">
    <g id="Icon" stroke="none" stroke-width="1" fill="none" fill-rule="evenodd">
        <g id="noun_319872_cc" transform="translate(28.000000, 28.000000)" fill="#FFFFFF" fill-rule="nonzero">
            <g id="Group">
                <path
                    d="M72.4184746,39.6798305 C72.8391525,36.8340678 72.8886441,33.9883051 72.5916949,31.2167797 C72.5916949,31.1177966 72.579322,31.0311864 72.5669492,30.9445763 C71.8122034,24.4735593 69.1149153,18.4108475 64.3884746,13.6844068 C63.5347458,12.830678 62.6191525,12.0388136 61.5922034,11.259322 C60.8374576,10.2818644 60.0332203,9.32915254 59.1423729,8.43830508 C53.710678,2.99423729 46.2374576,0 38.1084746,0 C28.47,0 18.7572881,4.1820339 11.4572881,11.4820339 C-2.5240678,25.4633898 -3.89745763,46.8561017 8.40118644,59.1547458 C9.26728814,60.0208475 10.2076271,60.800339 11.1727119,61.5427119 C11.9769492,62.5944068 12.7811864,63.5347458 13.659661,64.4008475 C19.0913559,69.8325424 26.5645763,72.8144068 34.6935593,72.8144068 C38.8632203,72.8144068 43.0452542,72.0225424 47.0416949,70.5501695 C47.0788136,70.5377966 47.1035593,70.5254237 47.140678,70.5130508 C49.1450847,69.770678 51.1,68.830339 52.980678,67.7415254 C53.1291525,67.6920339 53.2776271,67.6054237 53.4013559,67.4940678 C56.2471186,65.7989831 58.919661,63.7450847 61.3323729,61.3323729 C65.180339,57.4844068 68.0755932,53.0672881 69.9933898,48.4274576 C70.0181356,48.3779661 70.0428814,48.3284746 70.0552542,48.2789831 C71.1811864,45.5322034 71.960678,42.7111864 72.3937288,39.8777966 C72.3937288,39.8283051 72.4184746,39.7540678 72.4184746,39.6798305 Z M68.3972881,45.6683051 L65.0813559,42.3523729 C65.2545763,41.9069492 65.4154237,41.4615254 65.5762712,41.0161017 C65.6381356,40.8181356 65.7123729,40.6201695 65.7742373,40.4222034 C65.9474576,39.8901695 66.1083051,39.3705085 66.2444068,38.8384746 C66.3062712,38.6405085 66.3557627,38.4301695 66.4176271,38.2322034 C66.5289831,37.8115254 66.6155932,37.4032203 66.7145763,36.9825424 L69.8572881,40.1252542 C69.5232203,41.9688136 69.0283051,43.8247458 68.3972881,45.6683051 Z M65.6381356,51.6567797 L62.2108475,48.2294915 C62.2850847,48.0933898 62.3716949,47.969661 62.4459322,47.8335593 C62.470678,47.7840678 62.5077966,47.7345763 62.5325424,47.6850847 C62.9161017,47.0045763 63.2872881,46.3240678 63.6213559,45.6311864 C63.6955932,45.4827119 63.7698305,45.3342373 63.8316949,45.1857627 C63.8935593,45.0620339 63.9554237,44.9259322 64.0172881,44.8022034 L67.3827119,48.1676271 C66.8877966,49.3554237 66.2938983,50.5184746 65.6381356,51.6567797 Z M62.0623729,56.8286441 L58.5855932,53.3518644 C58.919661,52.9559322 59.2413559,52.5476271 59.5630508,52.139322 C59.5877966,52.1022034 59.6125424,52.0774576 59.6372881,52.0527119 C60.0579661,51.4959322 60.4662712,50.9391525 60.8498305,50.37 L64.3018644,53.8220339 C63.6089831,54.8489831 62.8666102,55.8511864 62.0623729,56.8286441 Z M52.7455932,65.0194915 L49.2811864,61.5550847 C50.3328814,60.8869492 51.3598305,60.1569492 52.349661,59.3774576 L55.8388136,62.8666102 C54.8489831,63.6337288 53.809661,64.3513559 52.7455932,65.0194915 Z M46.930339,67.9394915 L43.5772881,64.5864407 C44.7774576,64.0791525 45.9528814,63.4976271 47.1035593,62.8542373 L50.5184746,66.2691525 C49.3430508,66.9125424 48.1552542,67.4569492 46.930339,67.9394915 Z M38.5786441,70.1047458 L35.4977966,67.0238983 C37.3661017,66.6898305 39.2220339,66.1949153 41.0408475,65.5638983 L44.3320339,68.8550847 C42.4513559,69.4489831 40.5211864,69.8572881 38.5786441,70.1047458 Z M67.2342373,34.000678 C67.2589831,33.7655932 67.2961017,33.5428814 67.3208475,33.3077966 C67.3827119,32.7138983 67.4445763,32.12 67.4816949,31.5261017 C67.5064407,31.1920339 67.5064407,30.8455932 67.5188136,30.5115254 C67.5311864,30.1650847 67.5311864,29.8310169 67.5311864,29.4845763 C67.5311864,29.3361017 67.5435593,29.2 67.5435593,29.0515254 L70.1789831,31.6869492 C70.3522034,33.4315254 70.3769492,35.2132203 70.2408475,36.9949153 L67.2342373,34.000678 Z M65.9722034,19.5120339 C67.5559322,21.9371186 68.6818644,24.609661 69.3994915,27.4059322 L67.2837288,25.2901695 C67.2589831,25.0922034 67.2218644,24.9066102 67.1971186,24.7086441 C67.1476271,24.3869492 67.0981356,24.0652542 67.0486441,23.7435593 C66.949661,23.1620339 66.8259322,22.5805085 66.6898305,22.0113559 C66.6279661,21.7515254 66.5537288,21.5040678 66.4918644,21.2442373 C66.3805085,20.7988136 66.2444068,20.3657627 66.1083051,19.9327119 C66.0464407,19.8089831 66.0216949,19.6605085 65.9722034,19.5120339 Z M13.2142373,13.2266102 C20.0440678,6.39677966 29.1133898,2.47457627 38.1084746,2.47457627 C45.5816949,2.47457627 52.4362712,5.20898305 57.3977966,10.1705085 C58.090678,10.8633898 58.7340678,11.5933898 59.340339,12.3481356 L59.6620339,12.7688136 C59.6867797,12.8059322 59.7115254,12.830678 59.7362712,12.8677966 C60.280678,13.5854237 60.7879661,14.3401695 61.2457627,15.1072881 C61.2581356,15.119661 61.2705085,15.1444068 61.2705085,15.1567797 C61.7283051,15.9115254 62.1366102,16.6910169 62.5077966,17.4828814 C62.5201695,17.52 62.5449153,17.5571186 62.5572881,17.5942373 C62.9037288,18.3489831 63.2254237,19.1284746 63.4976271,19.920339 C63.5223729,19.9945763 63.5471186,20.0564407 63.5718644,20.130678 C63.819322,20.8359322 64.0172881,21.5535593 64.2028814,22.2711864 C64.24,22.4444068 64.2894915,22.6052542 64.3389831,22.7784746 C64.4998305,23.4589831 64.6235593,24.1518644 64.7349153,24.8447458 C64.7720339,25.0798305 64.8091525,25.3272881 64.8462712,25.5623729 C64.9328814,26.2181356 64.9947458,26.8862712 65.0318644,27.5544068 C65.0442373,27.8266102 65.0689831,28.0988136 65.0689831,28.3833898 C65.0937288,29.0515254 65.0937288,29.7072881 65.0689831,30.3754237 C65.0566102,30.6476271 65.0442373,30.9198305 65.0318644,31.1920339 C64.9947458,31.8725424 64.9328814,32.5654237 64.8586441,33.2459322 C64.8338983,33.4810169 64.7967797,33.7284746 64.759661,33.9635593 C64.660678,34.6935593 64.5369492,35.4235593 64.3761017,36.1411864 C64.3389831,36.3144068 64.2894915,36.4752542 64.2523729,36.6484746 C64.0915254,37.3784746 63.8935593,38.1084746 63.6832203,38.8261017 C63.6461017,38.9374576 63.6213559,39.0488136 63.5842373,39.1601695 C63.3367797,39.9644068 63.0522034,40.7562712 62.7428814,41.5481356 C62.6933898,41.6718644 62.6562712,41.7832203 62.6067797,41.9069492 C62.2850847,42.6988136 61.9386441,43.4783051 61.5550847,44.2577966 C61.4932203,44.3815254 61.4437288,44.5052542 61.3818644,44.6166102 C60.9983051,45.3837288 60.5776271,46.1508475 60.1198305,46.9055932 C60.0455932,47.0169492 59.9837288,47.140678 59.9094915,47.2520339 C59.4516949,48.0067797 58.9567797,48.7491525 58.4371186,49.4791525 C58.3628814,49.5781356 58.2886441,49.6771186 58.2144068,49.7761017 C57.67,50.5184746 57.1132203,51.2484746 56.5069492,51.9537288 C56.4450847,52.0279661 56.3832203,52.0898305 56.3213559,52.1640678 C55.690339,52.9064407 55.0222034,53.6240678 54.329322,54.329322 C53.8962712,54.7623729 53.4632203,55.170678 53.0177966,55.5789831 C46.3611864,61.6416949 37.8610169,65.0813559 29.4474576,65.0813559 C29.1752542,65.0813559 28.9154237,65.0566102 28.6555932,65.0566102 C28.0864407,65.0442373 27.5172881,65.0194915 26.9481356,64.9823729 C26.589322,64.9576271 26.2428814,64.9081356 25.8840678,64.8586441 C25.3891525,64.7967797 24.8942373,64.7349153 24.399322,64.6483051 C24.0652542,64.5864407 23.7311864,64.5245763 23.3971186,64.450339 C22.8898305,64.3389831 22.3825424,64.2276271 21.8752542,64.0915254 C21.5783051,64.0172881 21.2937288,63.930678 20.9967797,63.8440678 C20.44,63.6708475 19.8955932,63.4852542 19.3511864,63.2749153 C19.1284746,63.1883051 18.9057627,63.1140678 18.6830508,63.0274576 C17.9283051,62.7181356 17.1983051,62.3840678 16.480678,62.0252542 C16.3569492,61.9633898 16.2332203,61.8767797 16.0971186,61.8149153 C15.5279661,61.5055932 14.9711864,61.1838983 14.4267797,60.8374576 C14.1298305,60.6394915 13.8328814,60.4291525 13.5359322,60.2311864 C12.3481356,59.3898305 11.1974576,58.4618644 10.1457627,57.4101695 C-1.18779661,46.0766102 0.18559322,26.2552542 13.2142373,13.2266102 Z M20.1677966,66.1825424 C20.5018644,66.2815254 20.8483051,66.3805085 21.1823729,66.4794915 C21.7144068,66.6279661 22.2588136,66.7516949 22.8032203,66.8630508 C22.939322,66.8877966 23.0630508,66.9249153 23.1991525,66.9620339 L24.9066102,68.6694915 C23.0011864,67.9766102 21.1947458,67.0857627 19.5244068,65.9969492 C19.7347458,66.0711864 19.9450847,66.120678 20.1677966,66.1825424 Z M29.6454237,69.9067797 L27.220339,67.4816949 C27.6657627,67.5064407 28.1111864,67.5188136 28.5566102,67.5311864 C28.8535593,67.5435593 29.1381356,67.5683051 29.4474576,67.5683051 C30.4372881,67.5683051 31.4394915,67.5188136 32.429322,67.4198305 L35.3245763,70.3150847 C35.1142373,70.3150847 34.9038983,70.3274576 34.6935593,70.3274576 C32.9613559,70.3522034 31.2786441,70.1913559 29.6454237,69.9067797 Z M57.7689831,61.2828814 L54.2674576,57.7813559 C54.8861017,57.2369492 55.4923729,56.6801695 56.0738983,56.0862712 C56.3708475,55.789322 56.6430508,55.4923729 56.9276271,55.1954237 L60.4167797,58.6845763 C60.1322034,58.9815254 59.8723729,59.3032203 59.5754237,59.5877966 C58.9938983,60.1816949 58.3876271,60.7384746 57.7689831,61.2828814 Z"
                    id="Shape"></path>
                <path
                    d="M7.93101695,68.5828814 C5.88949153,68.5828814 4.21915254,66.9125424 4.21915254,64.8710169 C4.21915254,64.1905085 3.66237288,63.6337288 2.98186441,63.6337288 C2.30135593,63.6337288 1.74457627,64.1905085 1.74457627,64.8710169 C1.74457627,68.2859322 4.51610169,71.0574576 7.93101695,71.0574576 C8.61152542,71.0574576 9.16830508,70.500678 9.16830508,69.8201695 C9.16830508,69.139661 8.62389831,68.5828814 7.93101695,68.5828814 Z"
                    id="Shape"></path>
                <path
                    d="M64.8462712,3.00661017 C66.8877966,3.00661017 68.5581356,5.22135593 68.5581356,7.95576271 C68.5581356,8.63627119 69.1149153,9.19305085 69.7954237,9.19305085 C70.4759322,9.19305085 71.0327119,8.63627119 71.0327119,7.95576271 C71.0327119,3.86033898 68.2611864,0.532033898 64.8462712,0.532033898 C64.1657627,0.532033898 63.6089831,1.08881356 63.6089831,1.76932203 C63.6089831,2.44983051 64.1657627,3.00661017 64.8462712,3.00661017 Z"
                    id="Shape"></path>
                <path
                    d="M71.0327119,56.21 C71.0327119,55.5294915 70.4759322,54.9727119 69.7954237,54.9727119 C69.1149153,54.9727119 68.5581356,55.5294915 68.5581356,56.21 C68.5581356,62.3469492 63.5594915,67.3455932 57.4225424,67.3455932 C56.7420339,67.3455932 56.1852542,67.9023729 56.1852542,68.5828814 C56.1852542,69.2633898 56.7420339,69.8201695 57.4225424,69.8201695 C64.9328814,69.8201695 71.0327119,63.720339 71.0327119,56.21 Z"
                    id="Shape"></path>
                <path
                    d="M71.0327119,66.1083051 C70.3522034,66.1083051 69.7954237,66.6650847 69.7954237,67.3455932 C69.7954237,68.6818644 68.100339,69.8201695 66.0835593,69.8201695 C65.4030508,69.8201695 64.8462712,70.3769492 64.8462712,71.0574576 C64.8462712,71.7379661 65.4030508,72.2947458 66.0835593,72.2947458 C69.4984746,72.2947458 72.27,70.08 72.27,67.3455932 C72.27,66.6650847 71.7255932,66.1083051 71.0327119,66.1083051 Z"
                    id="Shape"></path>
                <path
                    d="M29.4350847,62.6315254 C22.6176271,62.6315254 16.3940678,60.1569492 11.9027119,55.6655932 C6.85457627,50.6174576 4.41711864,43.589661 5.02338983,35.8566102 C5.61728814,28.1977966 9.1559322,20.7864407 14.9588136,14.9835593 C21.3432203,8.59915254 29.7691525,4.94915254 38.1084746,4.94915254 C44.9259322,4.94915254 51.1494915,7.42372881 55.6284746,11.9027119 C60.6766102,16.9508475 63.1140678,23.9786441 62.5077966,31.7116949 C61.9138983,39.3581356 58.3752542,46.7818644 52.5723729,52.5847458 C51.0257627,54.1313559 49.3677966,55.5047458 47.6108475,56.7172881 L47.6479661,56.7544068 L46.1261017,57.6947458 C46.1137288,57.6947458 46.1013559,57.7071186 46.1013559,57.7071186 C45.5198305,58.0659322 44.9259322,58.4 44.3320339,58.7216949 C44.1588136,58.8083051 43.9979661,58.8949153 43.8247458,58.9815254 C43.3916949,59.2042373 42.9338983,59.4269492 42.4884746,59.6372881 C42.3028814,59.7238983 42.1172881,59.8105085 41.9316949,59.8971186 C41.3501695,60.1569492 40.7686441,60.3920339 40.1871186,60.6147458 C39.9891525,60.6889831 39.8035593,60.7508475 39.6055932,60.8127119 C39.1849153,60.9611864 38.7518644,61.0972881 38.3311864,61.2333898 C38.0837288,61.3076271 37.8362712,61.3818644 37.5888136,61.4561017 C37.1681356,61.5798305 36.7474576,61.6911864 36.3144068,61.7901695 C36.1164407,61.839661 35.9184746,61.9015254 35.7205085,61.9386441 C35.1142373,62.0747458 34.520339,62.1737288 33.9140678,62.2727119 C33.7161017,62.3098305 33.5057627,62.3345763 33.3077966,62.359322 C32.85,62.4211864 32.3922034,62.470678 31.9344068,62.5077966 C31.7364407,62.5201695 31.5384746,62.5449153 31.3405085,62.5572881 C30.7094915,62.6067797 30.0661017,62.6315254 29.4350847,62.6315254 Z M13.6472881,53.9086441 C17.6684746,57.9422034 23.2857627,60.1569492 29.4598305,60.1322034 C30.0042373,60.1322034 30.5362712,60.1198305 31.080678,60.0827119 C31.2538983,60.070339 31.4394915,60.0455932 31.6250847,60.0332203 C31.9838983,59.9961017 32.330339,59.9589831 32.6891525,59.9218644 C32.9118644,59.8971186 33.1222034,59.8723729 33.3449153,59.8352542 C33.6666102,59.7857627 33.9883051,59.7362712 34.31,59.6744068 C34.5327119,59.6372881 34.7677966,59.6001695 34.9905085,59.550678 C35.3245763,59.4764407 35.6710169,59.4022034 36.0050847,59.3155932 C36.2030508,59.2784746 36.3886441,59.2289831 36.5866102,59.1794915 C37.0938983,59.0433898 37.6011864,58.8949153 38.1084746,58.7340678 C38.2940678,58.6845763 38.4672881,58.610339 38.6528814,58.5484746 C38.999322,58.4247458 39.3581356,58.3010169 39.7045763,58.1649153 C39.8901695,58.090678 40.0881356,58.0040678 40.2737288,57.9298305 C40.6201695,57.7813559 40.9789831,57.6328814 41.3254237,57.4720339 C41.4862712,57.3854237 41.6594915,57.3111864 41.820339,57.2369492 C42.2533898,57.0389831 42.6740678,56.8162712 43.0947458,56.5935593 C43.1566102,56.5564407 43.2184746,56.5316949 43.280339,56.4945763 L36.3144068,51.1123729 C35.4111864,50.4071186 34.9410169,49.3183051 35.0894915,48.2666102 L35.5472881,44.950678 L36.4381356,44.7898305 C40.4469492,44.0845763 43.3916949,41.6966102 45.1981356,37.6630508 L45.4827119,37.019661 L46.1879661,36.9330508 C47.7840678,36.7474576 48.9966102,35.7576271 49.1079661,34.5327119 L49.3059322,32.4664407 C49.4049153,31.4889831 48.7491525,30.5115254 47.6108475,29.9176271 L46.9674576,29.5835593 L46.9427119,28.8659322 C46.6952542,22.939322 42.6122034,20.0688136 34.4461017,20.0564407 C34.099661,20.0564407 33.7779661,20.0688136 33.4686441,20.0935593 C30.5238983,20.2915254 27.9255932,19.7347458 26.0944068,18.4974576 C25.9830508,18.4108475 25.8716949,18.3366102 25.7727119,18.2623729 C25.7727119,20.1925424 25.5623729,20.6750847 24.6344068,21.9866102 C24.4240678,22.2959322 24.1518644,22.6671186 23.8301695,23.1744068 C23.050678,24.3622034 22.419661,25.7232203 21.9494915,27.220339 L21.7762712,27.7771186 L21.2442373,27.9998305 C20.4647458,28.3091525 19.8832203,28.9772881 19.7223729,29.7320339 L19.3759322,31.3157627 C19.190339,32.1447458 19.5615254,32.9613559 20.3038983,33.3201695 L20.959661,33.6418644 L20.9967797,34.3718644 C21.1823729,37.9476271 22.5433898,40.5830508 25.1416949,42.4142373 L25.7850847,42.8720339 L25.240678,45.8044068 C25.0550847,46.8437288 24.2879661,47.660339 23.2857627,47.9077966 L15.8991525,49.7142373 C14.5010169,50.1225424 13.3627119,51.4340678 12.9544068,53.1291525 C13.1894915,53.3889831 13.3998305,53.6611864 13.6472881,53.9086441 Z M7.48559322,36.0545763 C8.04237288,28.989661 11.3211864,22.1227119 16.7033898,16.7281356 C22.6176271,10.8138983 30.4249153,7.42372881 38.1084746,7.42372881 C44.2701695,7.42372881 49.8750847,9.63847458 53.8962712,13.6720339 C58.4247458,18.2005085 60.6023729,24.5354237 60.0579661,31.5384746 C59.5011864,38.6033898 56.2223729,45.470339 50.8401695,50.8649153 C49.2069492,52.4981356 47.4376271,53.9210169 45.5569492,55.1583051 L37.8238983,49.1945763 C37.6011864,49.0213559 37.5145763,48.7862712 37.539322,48.6501695 L37.7620339,47.0911864 C41.919322,46.1013559 45.1486441,43.4411864 47.1654237,39.3210169 C49.5905085,38.7889831 51.3598305,37.0072881 51.5577966,34.8172881 L51.7557627,32.7510169 C51.9289831,30.9569492 51.0133898,29.2371186 49.3554237,28.1359322 C48.9223729,23.1991525 45.8910169,17.6561017 34.4089831,17.6437288 C34.0254237,17.6437288 33.6542373,17.6561017 33.2954237,17.6808475 C30.9322034,17.8416949 28.8411864,17.4210169 27.4677966,16.5054237 C26.7254237,16.0105085 26.3789831,15.6145763 26.2181356,15.3671186 C25.9459322,14.9588136 25.4757627,14.7113559 24.9684746,14.7113559 C24.1147458,14.7113559 23.4094915,15.3547458 23.3352542,16.1837288 C23.2857627,16.8147458 23.2610169,17.4457627 23.2733898,18.0644068 C23.2981356,19.6110169 23.2981356,19.6110169 22.5928814,20.6008475 C22.3577966,20.9225424 22.0732203,21.3308475 21.7267797,21.8752542 C20.9225424,23.1125424 20.2544068,24.4983051 19.7347458,26.0077966 C18.4850847,26.700678 17.5571186,27.9008475 17.2601695,29.2494915 L16.9137288,30.8332203 C16.5425424,32.5530508 17.1859322,34.2233898 18.5345763,35.2008475 C18.8686441,38.9127119 20.3781356,41.8698305 23.0383051,43.9979661 L22.7784746,45.4084746 C22.7661017,45.4827119 22.7166102,45.5322034 22.6671186,45.5569492 L15.2310169,47.3757627 C13.4740678,47.8954237 12.0140678,49.1822034 11.1479661,50.9020339 C8.3640678,46.7076271 7.05254237,41.5976271 7.48559322,36.0545763 Z"
                    id="Shape"></path>
            </g>
        </g>
    </g>
</svg>