<?xml version="1.0" encoding="UTF-8" standalone="no"?>
<svg viewBox="0 0 100 100" version="1.1" xmlns="http://www.w3.org/2000/svg"
    xmlns:xlink="http://www.w3.org/1999/xlink">
    <title>Head</title>
    <g stroke="#384A7C" stroke-width="2" fill="none" fill-rule="evenodd">
        <g>
            <path
                d="M50,100 C22.43,100 0,77.57 0,50 C0,22.43 22.43,0 50,0 C77.57,0 100,22.43 100,50 C100,77.57 77.57,100 50,100 Z M50,2.367 C23.734,2.367 2.367,23.736 2.367,50 C2.367,76.265 23.735,97.633 50,97.633 C76.265,97.633 97.633,76.265 97.633,50 C97.633,23.736 76.265,2.367 50,2.367 Z M50,2.367 C23.734,2.367 2.367,23.736 2.367,50 C2.367,76.265 23.735,97.633 50,97.633 C76.265,97.633 97.633,76.265 97.633,50 C97.633,23.736 76.265,2.367 50,2.367 Z"
                 fill="#FFFFFF" fill-rule="nonzero"></path>
            
            
             <path d="M16.658,22.571 C16.384,22.571 16.11,22.476 15.887,22.284 C15.391,21.859 15.335,21.112 15.76,20.615 C19.485,16.279 23.929,12.732 28.971,10.073 C29.551,9.77 30.264,9.99 30.57,10.568 C30.875,11.146 30.653,11.862 30.075,12.167 C25.298,14.687 21.085,18.05 17.555,22.159 C17.322,22.43 16.991,22.571 16.658,22.571 Z"  fill="#384A7C"></path> 
             <!-- <path d="M30.29,17.317 C29.909,17.317 29.533,17.132 29.306,16.793 C28.942,16.25 29.089,15.515 29.632,15.149 C30.907,14.296 32.249,13.498 33.62,12.773 C34.2,12.47 34.913,12.69 35.22,13.268 C35.525,13.846 35.303,14.562 34.725,14.867 C33.426,15.552 32.155,16.309 30.947,17.118 C30.745,17.252 30.516,17.317 30.29,17.317 Z"  fill="#384A7C"></path>  -->
             <!-- <path d="M25.308,21.177 C24.983,21.177 24.661,21.046 24.427,20.784 C23.99,20.296 24.031,19.547 24.517,19.113 C25.113,18.579 25.725,18.059 26.353,17.555 C26.861,17.143 27.607,17.224 28.016,17.735 C28.426,18.246 28.344,18.99 27.834,19.399 C27.241,19.875 26.661,20.368 26.097,20.874 C25.872,21.078 25.589,21.177 25.308,21.177 Z"  fill="#384A7C"></path>  -->
             <!-- <path d="M21.307,25.271 C21.033,25.271 20.759,25.176 20.536,24.987 C20.04,24.559 19.983,23.813 20.409,23.318 C21.686,21.827 23.07,20.415 24.518,19.113 C25.004,18.674 25.75,18.713 26.189,19.203 C26.626,19.688 26.585,20.437 26.099,20.874 C24.726,22.106 23.416,23.447 22.205,24.857 C21.971,25.129 21.639,25.271 21.307,25.271 Z"  fill="#384A7C"></path>  -->
             <path d="M50,95.118 C25.122,95.118 4.882,74.878 4.882,50 C4.882,39.218 8.745,28.784 15.76,20.615 C16.189,20.123 16.938,20.067 17.429,20.49 C17.925,20.916 17.981,21.662 17.556,22.159 C10.909,29.896 7.249,39.783 7.249,50 C7.249,73.574 26.428,92.752 50,92.752 C51.747,92.752 53.509,92.646 55.233,92.435 C55.871,92.347 56.471,92.814 56.55,93.466 C56.628,94.115 56.168,94.705 55.519,94.783 C53.7,95.005 51.842,95.118 50,95.118 Z"  fill="#384A7C"></path> 
             <path d="M55.374,94.792 C54.784,94.792 54.273,94.354 54.202,93.752 C54.123,93.103 54.583,92.514 55.233,92.435 C61.563,91.664 67.506,89.537 72.896,86.114 C73.442,85.764 74.179,85.925 74.528,86.479 C74.88,87.029 74.716,87.761 74.163,88.111 C68.475,91.723 62.202,93.97 55.519,94.784 C55.471,94.79 55.423,94.792 55.374,94.792 Z"  fill="#384A7C"></path> 
             <!-- <path d="M51.791,91.545 C51.202,91.545 50.691,91.106 50.619,90.505 C50.541,89.856 51.001,89.266 51.65,89.188 C56,88.656 60.602,88 64.832,86.327 C65.429,86.079 66.127,86.385 66.367,86.992 C66.607,87.6 66.309,88.287 65.701,88.527 C61.213,90.304 56.439,90.989 51.936,91.537 C51.889,91.543 51.84,91.545 51.791,91.545 Z"  fill="#384A7C"></path>  -->
             <!-- <path d="M68.182,87.267 C67.759,87.267 67.35,87.04 67.137,86.641 C66.829,86.063 67.049,85.346 67.624,85.038 C68.775,84.424 69.878,83.714 70.902,82.926 C71.417,82.53 72.159,82.623 72.561,83.143 C72.958,83.662 72.862,84.403 72.343,84.803 C71.218,85.669 70.004,86.45 68.738,87.128 C68.561,87.223 68.371,87.267 68.182,87.267 Z"  fill="#384A7C"></path>  -->
             <path d="M73.53,88.295 C73.139,88.295 72.756,88.101 72.531,87.747 C72.179,87.195 72.343,86.465 72.894,86.113 C85.33,78.211 92.752,64.712 92.752,50 C92.752,26.426 73.574,7.249 50,7.249 C43.061,7.249 36.172,8.95 30.076,12.167 C29.498,12.47 28.782,12.25 28.477,11.672 C28.172,11.094 28.394,10.378 28.972,10.073 C35.406,6.676 42.678,4.882 50,4.882 C74.878,4.882 95.118,25.123 95.118,50 C95.118,65.525 87.285,79.773 74.166,88.11 C73.967,88.235 73.747,88.295 73.53,88.295 Z"  fill="#384A7C"></path> 



            <path
                d="M41.16,36.58 L40.44,46.18 C43.5600156,44.0199892 46.9999812,42.94 50.76,42.94 C55.2400224,42.94 58.779987,44.1299881 61.38,46.51 C63.980013,48.8900119 65.28,52.1399794 65.28,56.26 C65.28,60.7400224 63.7300155,64.3699861 60.63,67.15 C57.5299845,69.9300139 53.480025,71.32 48.48,71.32 C44.3599794,71.32 40.8700143,70.3100101 38.01,68.29 C35.1499857,66.2699899 33.72,63.8000146 33.72,60.88 C33.72,59.4399928 34.1799954,58.2300049 35.1,57.25 C36.0200046,56.2699951 37.1399934,55.78 38.46,55.78 C39.5000052,55.78 40.3499967,56.079997 41.01,56.68 C41.6700033,57.280003 42,58.079995 42,59.08 C42,59.7600034 41.7700023,60.3499975 41.31,60.85 C40.8499977,61.3500025 40.3000032,61.6 39.66,61.6 C39.1799976,61.6400002 38.94,61.7799988 38.94,62.02 C38.94,63.3400066 39.9899895,64.5299947 42.09,65.59 C44.1900105,66.6500053 46.539987,67.18 49.14,67.18 C52.340016,67.18 54.9699897,66.1900099 57.03,64.21 C59.0900103,62.2299901 60.12,59.7000154 60.12,56.62 C60.12,53.6599852 59.2500087,51.3300085 57.51,49.63 C55.7699913,47.9299915 53.3800152,47.08 50.34,47.08 C46.6199814,47.08 43.660011,48.1599892 41.46,50.32 C40.5799956,51.1600042 39.9600018,51.7099987 39.6,51.97 C39.2399982,52.2300013 38.7800028,52.3999996 38.22,52.48 L37.98,52.48 C36.4199922,52.48 35.64,51.6000088 35.64,49.84 C35.64,49.7599996 35.6599998,49.6800004 35.7,49.6 L36.54,38.02 C36.5800002,37.3799968 36.6199998,36.2800078 36.66,34.72 C36.7000002,32.519989 36.8599986,31.1700025 37.14,30.67 C37.4200014,30.1699975 38.159994,29.92 39.36,29.92 C39.8400024,29.92 40.1999988,29.9399998 40.44,29.98 L43.38,29.92 L54.24,29.92 C55.4000058,29.92 56.279997,29.9000002 56.88,29.86 C58.080006,29.7799996 58.8999978,29.74 59.34,29.74 C60.940008,29.74 61.74,30.9199882 61.74,33.28 L61.68,33.7 C61.68,34.7400052 61.8399984,35.959993 62.16,37.36 C62.3200008,37.8400024 62.4,38.279998 62.4,38.68 C62.4,39.9600064 61.7200068,40.6 60.36,40.6 C59.0799936,40.6 58.4000004,39.6600094 58.32,37.78 C58.2399996,35.5399888 57.2600094,34.42 55.38,34.42 L42.84,34.42 C41.839995,34.42 41.2800006,35.1399928 41.16,36.58 Z"
                 fill="#384A7C"></path>
        </g>
    </g>
</svg>