<?xml version="1.0" encoding="utf-8"?>
<!-- Generator: Adobe Illustrator 17.0.0, SVG Export Plug-In . SVG Version: 6.00 Build 0)  -->
<!DOCTYPE svg PUBLIC "-//W3C//DTD SVG 1.1//EN" "http://www.w3.org/Graphics/SVG/1.1/DTD/svg11.dtd">
<svg version="1.1" xmlns="http://www.w3.org/2000/svg" xmlns:xlink="http://www.w3.org/1999/xlink" x="0px" y="0px"
	 width="567.817px" height="153.672px" viewBox="22.689 318.455 567.817 153.672"
	 enable-background="new 22.689 318.455 567.817 153.672" xml:space="preserve">
<g>
	<path fill="#FFFFFF" d="M22.689,440.78c0-17.315,11.643-31.048,28.062-31.048c9.852,0,16.121,4.478,19.405,8.658v-31.048h16.718
		v83.292H70.156v-7.165c-3.284,4.478-9.553,8.658-19.405,8.658C34.332,472.127,22.689,458.394,22.689,440.78z M70.156,448.542
		v-15.225c-2.388-4.777-7.762-8.658-14.628-8.658c-9.255,0-16.121,7.165-16.121,16.42s6.568,16.718,16.121,16.718
		C62.394,457.499,67.768,453.319,70.156,448.542z"/>
	<path fill="#FFFFFF" d="M101.502,395.701c0-5.672,4.478-10.15,9.852-10.15c5.672,0,9.852,4.478,9.852,10.15
		c0,5.672-4.478,9.852-9.852,9.852C105.682,405.553,101.502,401.075,101.502,395.701z M102.995,411.225h16.718v59.409h-16.718
		V411.225z"/>
	<path fill="#FFFFFF" d="M131.953,440.78c0-19.405,15.524-31.048,32.54-31.048c7.165,0,12.24,1.194,17.614,3.881v14.33
		c-5.075-2.388-9.255-3.582-15.225-3.582c-10.15,0-18.509,6.568-18.509,16.419c0,10.15,8.359,16.718,18.509,16.718
		c6.568,0,11.046-1.194,16.121-4.18v14.33c-5.971,2.985-11.046,4.478-18.808,4.478C147.477,472.127,131.953,460.484,131.953,440.78z
		"/>
	<path fill="#FFFFFF" d="M191.063,440.78c0-17.315,12.24-31.048,31.048-31.048c17.912,0,28.361,14.628,28.361,31.346v4.478h-42.691
		c1.791,8.359,9.852,12.24,20.002,12.24c7.165,0,13.733-2.09,19.106-5.374v13.733c-4.777,3.582-13.434,5.971-22.689,5.971
		C205.99,472.127,191.063,460.185,191.063,440.78z M233.754,434.81c-0.299-6.269-4.777-11.941-12.539-11.941
		s-12.837,5.075-13.434,11.941H233.754z"/>
	<path fill="#FFFFFF" d="M376.455,461.38c0-5.672,4.478-10.15,10.449-10.15c5.672,0,10.449,4.478,10.449,10.15
		c0,5.971-4.777,10.449-10.449,10.449C380.933,471.828,376.455,467.35,376.455,461.38z"/>
	<path fill="#FFFFFF" d="M394.964,411.225h16.718l11.643,35.227l11.643-35.526h13.434l11.941,35.526l11.643-35.227h16.718
		l-20.3,59.707h-14.628l-12.24-35.824l-12.24,35.824h-14.33L394.964,411.225z"/>
	<path fill="#FFFFFF" d="M497.362,395.701c0-5.672,4.478-10.15,9.852-10.15c5.672,0,9.852,4.478,9.852,10.15
		c0,5.672-4.478,9.852-9.852,9.852S497.362,401.075,497.362,395.701z M499.153,411.225h16.718v59.409h-16.718V411.225z"/>
	<path fill="#FFFFFF" d="M531.992,470.634v-59.409h16.718v7.165c4.18-4.478,10.449-8.658,20.002-8.658
		c14.031,0,21.793,9.553,21.793,24.48v36.421h-16.718v-32.839c0-10.15-6.269-12.539-11.344-12.539
		c-5.374,0-10.747,3.582-13.434,7.762v37.914h-17.017V470.634z"/>
</g>
<g>
	<path fill="#4DA6FF" d="M318.539,416.002l-10.15-10.15l4.478,0.299c9.553,0.896,14.33-0.896,19.106-5.374
		c6.866-6.866,4.18-17.315-2.09-23.286c-3.582-3.582-7.463-5.971-11.643-6.866l-9.852,9.852c4.478,0.597,8.359,2.09,11.344,5.075
		c2.09,2.09,2.687,4.777,0.896,6.568c-1.791,1.791-4.777,2.687-12.24,2.09l-14.927-1.194l-7.165,7.165l24.181,24.181
		L318.539,416.002z"/>
	<path fill="#4DA6FF" d="M387.202,385.551l-63.29-63.29c-5.075-5.075-13.733-5.075-18.808,0l-63.588,63.29
		c-5.075,5.075-5.075,13.733,0,18.808l63.29,63.29c5.075,5.075,13.733,5.075,18.808,0l63.29-63.29
		C392.277,399.284,392.277,390.925,387.202,385.551z M314.359,455.409l-60.304-60.304l60.304-60.304l60.304,60.304L314.359,455.409z
		"/>
</g>
</svg>
