<?xml version="1.0" encoding="utf-8"?>
<!-- Generator: Adobe Illustrator 24.1.1, SVG Export Plug-In . SVG Version: 6.00 Build 0)  -->
<svg version="1.1" id="Layer_1" xmlns="http://www.w3.org/2000/svg" xmlns:xlink="http://www.w3.org/1999/xlink" x="0px" y="0px"
	 viewBox="0 0 512 512" style="enable-background:new 0 0 512 512;" xml:space="preserve">
<g>
	<path d="M511.5,54.8C510.8,25,486.9,1,457.2,0.1V0H54.8v0.1C24.9,0.8,0.8,24.9,0.1,54.8H0v402.4h0.1c0.7,29.9,24.8,54,54.7,54.7
		v0.1h402.4v-0.1c29.9-0.7,54.1-24.8,54.7-54.7h0.1V54.8H511.5z M256,313.4c-31.7,0-57.4-25.7-57.4-57.4s25.7-57.4,57.4-57.4
		c31.7,0,57.4,25.7,57.4,57.4S287.7,313.4,256,313.4z"/>
</g>
</svg>
