<svg id="Icons" height="512" viewBox="0 0 60 60" width="512" xmlns="http://www.w3.org/2000/svg">
    <g fill="#b9bfcc">
        <path d="m18.568 39.755h7.613v2h-7.613z" transform="matrix(.164 -.986 .986 .164 -21.499 56.139)" />
        <path d="m36.625 36.963h2v7.584h-2z" transform="matrix(.99 -.14 .14 .99 -5.32 5.651)" />
        <path d="m5.425 32.795h13.72v1.999h-13.72z" transform="matrix(.833 -.553 .553 .833 -16.637 12.428)" />
        <path d="m46.715 26.935h1.999v13.72h-1.999z" transform="matrix(.553 -.833 .833 .553 -6.834 54.849)" />
    </g>
    <path
        d="m38.34 7.77-5.34 6.23h-6l-5.34-6.23a1.007 1.007 0 0 1 .15-1.46 12.566 12.566 0 0 1 2.25-1.27 19.135 19.135 0 0 1 1.87-.72l-.55-1.38a.994.994 0 0 1 .6-1.32 13.343 13.343 0 0 1 8.04 0 .994.994 0 0 1 .6 1.32l-.55 1.38a19.135 19.135 0 0 1 1.87.72 12.566 12.566 0 0 1 2.25 1.27 1.007 1.007 0 0 1 .15 1.46z"
        fill="#9e785f" />
    <path d="m44 29.789c0 8.721-6.268 9.211-14 9.211s-14-.49-14-9.211 6.268-15.789 14-15.789 14 7.069 14 15.789z"
        fill="#9e785f" />
    <circle cx="38" cy="46" fill="#eebd91" r="3" />
    <path d="m38 49a5 5 0 0 1 5 5v4a1 1 0 0 1 -1 1h-8a1 1 0 0 1 -1-1v-4a5 5 0 0 1 5-5z" fill="#31b791" />
    <circle cx="54" cy="38" fill="#a87e48" r="3" />
    <path d="m54 41a5 5 0 0 1 5 5v4a1 1 0 0 1 -1 1h-8a1 1 0 0 1 -1-1v-4a5 5 0 0 1 5-5z" fill="#ec3a48" />
    <circle cx="22" cy="46" fill="#a87e48" r="3" />
    <path d="m22 49a5 5 0 0 1 5 5v4a1 1 0 0 1 -1 1h-8a1 1 0 0 1 -1-1v-4a5 5 0 0 1 5-5z" fill="#f5ab01" />
    <circle cx="6" cy="38" fill="#eebd91" r="3" />
    <path d="m6 41a5 5 0 0 1 5 5v4a1 1 0 0 1 -1 1h-8a1 1 0 0 1 -1-1v-4a5 5 0 0 1 5-5z" fill="#346d92" />
    <path
        d="m33 29a3 3 0 0 0 -3-3 1 1 0 1 1 .867-1.5 1 1 0 0 0 1.731-1 2.993 2.993 0 0 0 -1.598-1.3v-.2a1 1 0 0 0 -2 0v.184a2.993 2.993 0 0 0 1 5.816 1 1 0 1 1 -.867 1.5 1 1 0 0 0 -1.731 1 2.993 2.993 0 0 0 1.6 1.3v.2a1 1 0 0 0 2 0v-.184a3 3 0 0 0 1.998-2.816z"
        fill="#6b503e" />
    <path
        d="m26.44 8.3a.937.937 0 0 1 -.37.07 1.015 1.015 0 0 1 -.93-.63l-1.08-2.7a19.135 19.135 0 0 1 1.87-.72l1.07 2.68a.994.994 0 0 1 -.56 1.3z"
        fill="#80624b" />
    <path
        d="m35.94 5.04-1.08 2.7a1.015 1.015 0 0 1 -.93.63.937.937 0 0 1 -.37-.07.994.994 0 0 1 -.56-1.3l1.07-2.68a19.135 19.135 0 0 1 1.87.72z"
        fill="#80624b" />
    <path d="m37 15h-14a1 1 0 0 1 0-2h14a1 1 0 0 1 0 2z" fill="#fcc10a" />
</svg>