<?xml version="1.0" encoding="UTF-8" standalone="no"?>
<svg width="128px" height="128px" viewBox="0 0 128 128" version="1.1" xmlns="http://www.w3.org/2000/svg" xmlns:xlink="http://www.w3.org/1999/xlink">
    <!-- Generator: Sketch 49.1 (51147) - http://www.bohemiancoding.com/sketch -->
    <title>Icon</title>
    <desc>Created with Sketch.</desc>
    <defs>
        <path d="M49.5000179,14.7125 C47.6339019,14.7124996 45.7681208,15.420913 44.3504649,16.8385789 L16.8390003,44.35021 C14.0036739,47.1855542 14.0036592,51.8140673 16.8390003,54.6493767 L44.3504649,82.1610077 C47.1857839,84.9963257 51.8142781,84.9963359 54.6495695,82.1610077 L82.1610347,54.6493767 C84.9963276,51.814063 84.996316,47.1855542 82.1610347,44.35021 L54.6495695,16.8385789 C53.2319093,15.4209187 51.3661325,14.7125004 49.5000179,14.7125 Z" id="path-1"></path>
        <filter x="-15.8%" y="-18.7%" width="137.4%" height="137.4%" filterUnits="objectBoundingBox" id="filter-2">
            <feOffset dx="2" dy="0" in="SourceAlpha" result="shadowOffsetOuter1"></feOffset>
            <feGaussianBlur stdDeviation="4" in="shadowOffsetOuter1" result="shadowBlurOuter1"></feGaussianBlur>
            <feColorMatrix values="0 0 0 0 0   0 0 0 0 0   0 0 0 0 0  0 0 0 0.2 0" type="matrix" in="shadowBlurOuter1"></feColorMatrix>
        </filter>
    </defs>
    <g id="Icon" stroke="none" stroke-width="1" fill="none" fill-rule="evenodd">
        <g id="Two-Cube-Logo" transform="translate(-10.000000, -7.000000)">
            <path d="M83.5000178,39 C81.6493242,38.9999996 79.7989628,39.7025583 78.3930231,41.108508 L51.1089259,68.3927703 C48.297032,71.2046818 48.2970174,75.7949428 51.1089259,78.6068199 L78.3930231,105.891082 C81.2049096,108.702968 85.7951518,108.702978 88.6070111,105.891082 L115.891109,78.6068199 C118.702969,75.7949385 118.702958,71.2046818 115.891109,68.3927703 L88.6070111,41.108508 C87.2010671,39.702564 85.3507099,39.0000004 83.5000178,39 Z" id="Shape" fill="#FFFFFF" transform="translate(83.500000, 73.500000) rotate(29.000000) translate(-83.500000, -73.500000) "></path>
            <circle id="Oval-2-Copy-3" fill="#4E4E4E" cx="103.5" cy="84.5" r="4.5"></circle>
            <g id="Two-Cube-Logo-Copy" transform="translate(70.500000, 70.500000) rotate(43.000000) translate(-70.500000, -70.500000) translate(21.000000, 21.000000)">
                <g id="Shape" transform="translate(49.500000, 49.500000) rotate(45.000000) translate(-49.500000, -49.500000) ">
                    <use fill="black" fill-opacity="1" filter="url(#filter-2)" xlink:href="#path-1"></use>
                    <use fill="#FFFFFF" fill-rule="evenodd" xlink:href="#path-1"></use>
                </g>
                <circle id="Oval-2" fill="#4E4E4E" cx="60.56875" cy="33.6875" r="4.74375"></circle>
                <circle id="Oval-2" fill="#4E4E4E" cx="38.43125" cy="33.6875" r="4.74375"></circle>
                <circle id="Oval-2" fill="#4E4E4E" cx="60.56875" cy="49.5" r="4.74375"></circle>
                <circle id="Oval-2" fill="#4E4E4E" cx="38.43125" cy="49.5" r="4.74375"></circle>
                <circle id="Oval-2" fill="#4E4E4E" cx="60.56875" cy="65.3125" r="4.74375"></circle>
                <circle id="Oval-2" fill="#4E4E4E" cx="38.43125" cy="65.3125" r="4.74375"></circle>
            </g>
        </g>
    </g>
</svg>